<svg xmlns="http://www.w3.org/2000/svg" xmlns:xlink="http://www.w3.org/1999/xlink" width="300" zoomAndPan="magnify" viewBox="0 0 224.87999 225" height="300" preserveAspectRatio="xMidYMid meet" version="1.0"><defs><clipPath id="c6edd9e35e"><path d="M 26.394531 14.191406 L 210.796875 14.191406 L 210.796875 210.585938 L 26.394531 210.585938 Z M 26.394531 14.191406 " clip-rule="nonzero"/></clipPath></defs><g clip-path="url(#c6edd9e35e)"><path fill="#00980d" d="M 210.792969 112.386719 L 192.355469 112.386719 L 192.355469 63.289062 L 143.179688 14.191406 L 44.835938 14.191406 L 44.835938 112.386719 L 26.394531 112.386719 L 26.394531 173.761719 L 44.835938 173.761719 L 44.835938 210.585938 L 192.355469 210.585938 L 192.355469 173.761719 L 210.792969 173.761719 L 210.792969 112.386719 " fill-opacity="1" fill-rule="nonzero"/></g><path fill="#ffffff" d="M 143.179688 22.878906 L 143.179688 63.289062 L 183.652344 63.289062 Z M 137.035156 69.425781 L 137.035156 20.328125 L 50.976562 20.328125 L 50.976562 112.386719 L 186.203125 112.386719 L 186.203125 69.425781 Z M 50.976562 204.449219 L 186.203125 204.449219 L 186.203125 173.761719 L 50.976562 173.761719 Z M 108.855469 124.6875 L 108.855469 161.484375 L 131.871094 161.484375 L 131.871094 154.496094 L 117.226562 154.496094 L 117.226562 124.6875 Z M 147.695312 155.203125 C 144.128906 155.203125 140.695312 154.058594 138.449219 152.914062 L 136.757812 159.796875 C 138.835938 160.941406 142.988281 162.03125 147.203125 162.03125 C 157.308594 162.03125 162.066406 156.789062 162.066406 150.621094 C 162.066406 145.4375 159.003906 142.046875 152.496094 139.644531 C 147.742188 137.847656 145.667969 136.804688 145.667969 134.460938 C 145.667969 132.550781 147.417969 130.914062 151.019531 130.914062 C 154.632812 130.914062 157.261719 131.949219 158.738281 132.65625 L 160.589844 125.945312 C 158.402344 124.960938 155.339844 124.085938 151.1875 124.085938 C 142.496094 124.085938 137.25 128.894531 137.25 135.175781 C 137.25 140.523438 141.234375 143.90625 147.359375 146.035156 C 151.789062 147.617188 153.539062 148.929688 153.539062 151.226562 C 153.539062 153.621094 151.511719 155.203125 147.695312 155.203125 Z M 80.730469 161.484375 L 83.792969 154.820312 C 84.941406 152.257812 85.867188 150.347656 86.636719 148.21875 L 86.746094 148.21875 C 87.789062 150.347656 88.667969 152.257812 90.035156 154.820312 L 93.359375 161.484375 L 102.988281 161.484375 L 92.050781 142.652344 L 102.433594 124.6875 L 92.925781 124.6875 L 89.804688 131.398438 C 88.878906 133.53125 88.171875 135.175781 87.296875 137.515625 L 87.1875 137.515625 C 86.3125 135.445312 85.496094 133.640625 84.390625 131.398438 L 81.171875 124.6875 L 71.605469 124.6875 L 81.882812 142.871094 L 71.222656 161.484375 L 80.730469 161.484375 " fill-opacity="1" fill-rule="nonzero"/></svg>