<svg xmlns="http://www.w3.org/2000/svg" xmlns:xlink="http://www.w3.org/1999/xlink" width="250" zoomAndPan="magnify" viewBox="0 0 187.5 74.999997" height="100" preserveAspectRatio="xMidYMid meet" version="1.0"><defs><g/><clipPath id="70a9a6bcbf"><path d="M 1.46875 15.621094 L 51 15.621094 L 51 56 L 1.46875 56 Z M 1.46875 15.621094 " clip-rule="nonzero"/></clipPath><clipPath id="afaa4a9683"><path d="M 15 15.621094 L 65 15.621094 L 65 56 L 15 56 Z M 15 15.621094 " clip-rule="nonzero"/></clipPath></defs><g clip-path="url(#70a9a6bcbf)"><path fill="#10a37f" d="M 1.46875 15.636719 L 4.40625 16.65625 L 17.136719 21.085938 L 21.191406 22.496094 L 18.847656 23.863281 L 16.371094 25.304688 L 26.148438 41.421875 L 27.898438 38.539062 L 34.074219 28.363281 L 35.925781 25.304688 L 34.6875 24.582031 L 31.105469 22.496094 L 35.484375 20.972656 L 47.894531 16.65625 L 50.828125 15.636719 L 48.238281 19.835938 L 47.894531 20.394531 L 45.433594 24.386719 L 38.492188 35.644531 L 32.300781 45.679688 L 27.878906 52.855469 L 26.148438 55.660156 L 24.417969 52.855469 L 4.40625 20.394531 L 1.46875 15.636719 " fill-opacity="1" fill-rule="nonzero"/></g><path fill="#ffffff" d="M 32.300781 45.679688 L 27.898438 38.539062 L 34.074219 28.363281 L 38.492188 35.644531 L 32.300781 45.679688 " fill-opacity="1" fill-rule="nonzero"/><g clip-path="url(#afaa4a9683)"><path fill="#ffffff" d="M 64.90625 15.636719 L 61.972656 20.394531 L 41.960938 52.855469 L 40.230469 55.660156 L 38.496094 52.855469 L 18.484375 20.394531 L 15.550781 15.636719 L 18.484375 16.65625 L 35.273438 22.496094 L 30.449219 25.304688 L 40.230469 41.421875 L 50.007812 25.304688 L 45.183594 22.496094 L 61.972656 16.65625 L 64.90625 15.636719 " fill-opacity="1" fill-rule="nonzero"/></g><g fill="#10a37f" fill-opacity="1"><g transform="translate(59.249817, 47.211798)"><g><path d="M 6.234375 -13.453125 C 7.648438 -13.453125 8.890625 -13.171875 9.953125 -12.609375 C 11.015625 -12.046875 11.832031 -11.253906 12.40625 -10.234375 C 12.988281 -9.222656 13.28125 -8.054688 13.28125 -6.734375 C 13.28125 -5.410156 12.988281 -4.238281 12.40625 -3.21875 C 11.832031 -2.195312 11.007812 -1.40625 9.9375 -0.84375 C 8.875 -0.28125 7.640625 0 6.234375 0 L 1.1875 0 L 1.1875 -13.453125 Z M 6.015625 -2.84375 C 7.253906 -2.84375 8.21875 -3.179688 8.90625 -3.859375 C 9.601562 -4.535156 9.953125 -5.492188 9.953125 -6.734375 C 9.953125 -7.972656 9.601562 -8.9375 8.90625 -9.625 C 8.21875 -10.3125 7.253906 -10.65625 6.015625 -10.65625 L 4.46875 -10.65625 L 4.46875 -2.84375 Z M 6.015625 -2.84375 "/></g></g></g><g fill="#10a37f" fill-opacity="1"><g transform="translate(73.18468, 47.211798)"><g><path d="M 2.84375 -11.8125 C 2.257812 -11.8125 1.785156 -11.976562 1.421875 -12.3125 C 1.054688 -12.65625 0.875 -13.078125 0.875 -13.578125 C 0.875 -14.085938 1.054688 -14.507812 1.421875 -14.84375 C 1.785156 -15.1875 2.257812 -15.359375 2.84375 -15.359375 C 3.40625 -15.359375 3.867188 -15.1875 4.234375 -14.84375 C 4.597656 -14.507812 4.78125 -14.085938 4.78125 -13.578125 C 4.78125 -13.078125 4.597656 -12.65625 4.234375 -12.3125 C 3.867188 -11.976562 3.40625 -11.8125 2.84375 -11.8125 Z M 4.46875 -10.703125 L 4.46875 0 L 1.1875 0 L 1.1875 -10.703125 Z M 4.46875 -10.703125 "/></g></g></g><g fill="#10a37f" fill-opacity="1"><g transform="translate(78.83913, 47.211798)"><g><path d="M 6 -3.0625 L 8.328125 -10.703125 L 11.8125 -10.703125 L 8.015625 0 L 3.96875 0 L 0.171875 -10.703125 L 3.6875 -10.703125 Z M 6 -3.0625 "/></g></g></g><g fill="#10a37f" fill-opacity="1"><g transform="translate(90.838065, 47.211798)"><g><path d="M 2.84375 -11.8125 C 2.257812 -11.8125 1.785156 -11.976562 1.421875 -12.3125 C 1.054688 -12.65625 0.875 -13.078125 0.875 -13.578125 C 0.875 -14.085938 1.054688 -14.507812 1.421875 -14.84375 C 1.785156 -15.1875 2.257812 -15.359375 2.84375 -15.359375 C 3.40625 -15.359375 3.867188 -15.1875 4.234375 -14.84375 C 4.597656 -14.507812 4.78125 -14.085938 4.78125 -13.578125 C 4.78125 -13.078125 4.597656 -12.65625 4.234375 -12.3125 C 3.867188 -11.976562 3.40625 -11.8125 2.84375 -11.8125 Z M 4.46875 -10.703125 L 4.46875 0 L 1.1875 0 L 1.1875 -10.703125 Z M 4.46875 -10.703125 "/></g></g></g><g fill="#10a37f" fill-opacity="1"><g transform="translate(96.492516, 47.211798)"><g><path d="M 7.703125 -10.8125 C 8.960938 -10.8125 9.960938 -10.40625 10.703125 -9.59375 C 11.453125 -8.78125 11.828125 -7.664062 11.828125 -6.25 L 11.828125 0 L 8.5625 0 L 8.5625 -5.8125 C 8.5625 -6.519531 8.375 -7.070312 8 -7.46875 C 7.632812 -7.875 7.140625 -8.078125 6.515625 -8.078125 C 5.890625 -8.078125 5.390625 -7.875 5.015625 -7.46875 C 4.648438 -7.070312 4.46875 -6.519531 4.46875 -5.8125 L 4.46875 0 L 1.1875 0 L 1.1875 -10.703125 L 4.46875 -10.703125 L 4.46875 -9.28125 C 4.800781 -9.75 5.25 -10.117188 5.8125 -10.390625 C 6.375 -10.671875 7.003906 -10.8125 7.703125 -10.8125 Z M 7.703125 -10.8125 "/></g></g></g><g fill="#10a37f" fill-opacity="1"><g transform="translate(109.411494, 47.211798)"><g><path d="M 11.265625 -5.515625 C 11.265625 -5.210938 11.25 -4.894531 11.21875 -4.5625 L 3.796875 -4.5625 C 3.847656 -3.894531 4.0625 -3.382812 4.4375 -3.03125 C 4.8125 -2.6875 5.273438 -2.515625 5.828125 -2.515625 C 6.648438 -2.515625 7.21875 -2.859375 7.53125 -3.546875 L 11.03125 -3.546875 C 10.84375 -2.847656 10.515625 -2.21875 10.046875 -1.65625 C 9.585938 -1.09375 9.003906 -0.648438 8.296875 -0.328125 C 7.597656 -0.00390625 6.8125 0.15625 5.9375 0.15625 C 4.894531 0.15625 3.960938 -0.0664062 3.140625 -0.515625 C 2.328125 -0.960938 1.6875 -1.601562 1.21875 -2.4375 C 0.757812 -3.269531 0.53125 -4.238281 0.53125 -5.34375 C 0.53125 -6.457031 0.753906 -7.429688 1.203125 -8.265625 C 1.660156 -9.097656 2.300781 -9.734375 3.125 -10.171875 C 3.945312 -10.617188 4.882812 -10.84375 5.9375 -10.84375 C 6.976562 -10.84375 7.898438 -10.625 8.703125 -10.1875 C 9.503906 -9.757812 10.128906 -9.140625 10.578125 -8.328125 C 11.035156 -7.523438 11.265625 -6.585938 11.265625 -5.515625 Z M 7.921875 -6.390625 C 7.921875 -6.953125 7.726562 -7.394531 7.34375 -7.71875 C 6.957031 -8.050781 6.476562 -8.21875 5.90625 -8.21875 C 5.351562 -8.21875 4.890625 -8.054688 4.515625 -7.734375 C 4.140625 -7.421875 3.90625 -6.972656 3.8125 -6.390625 Z M 7.921875 -6.390625 "/></g></g></g><g fill="#10a37f" fill-opacity="1"><g transform="translate(121.218749, 47.211798)"><g/></g></g><g fill="#10a37f" fill-opacity="1"><g transform="translate(125.282284, 47.211798)"><g><path d="M 6.234375 -13.453125 C 7.648438 -13.453125 8.890625 -13.171875 9.953125 -12.609375 C 11.015625 -12.046875 11.832031 -11.253906 12.40625 -10.234375 C 12.988281 -9.222656 13.28125 -8.054688 13.28125 -6.734375 C 13.28125 -5.410156 12.988281 -4.238281 12.40625 -3.21875 C 11.832031 -2.195312 11.007812 -1.40625 9.9375 -0.84375 C 8.875 -0.28125 7.640625 0 6.234375 0 L 1.1875 0 L 1.1875 -13.453125 Z M 6.015625 -2.84375 C 7.253906 -2.84375 8.21875 -3.179688 8.90625 -3.859375 C 9.601562 -4.535156 9.953125 -5.492188 9.953125 -6.734375 C 9.953125 -7.972656 9.601562 -8.9375 8.90625 -9.625 C 8.21875 -10.3125 7.253906 -10.65625 6.015625 -10.65625 L 4.46875 -10.65625 L 4.46875 -2.84375 Z M 6.015625 -2.84375 "/></g></g></g><g fill="#10a37f" fill-opacity="1"><g transform="translate(139.217147, 47.211798)"><g><path d="M 6.0625 0.15625 C 5.007812 0.15625 4.0625 -0.0664062 3.21875 -0.515625 C 2.382812 -0.960938 1.726562 -1.601562 1.25 -2.4375 C 0.769531 -3.269531 0.53125 -4.238281 0.53125 -5.34375 C 0.53125 -6.445312 0.773438 -7.414062 1.265625 -8.25 C 1.753906 -9.09375 2.421875 -9.734375 3.265625 -10.171875 C 4.109375 -10.617188 5.050781 -10.84375 6.09375 -10.84375 C 7.144531 -10.84375 8.09375 -10.617188 8.9375 -10.171875 C 9.78125 -9.734375 10.441406 -9.09375 10.921875 -8.25 C 11.410156 -7.414062 11.65625 -6.445312 11.65625 -5.34375 C 11.65625 -4.25 11.410156 -3.28125 10.921875 -2.4375 C 10.429688 -1.601562 9.757812 -0.960938 8.90625 -0.515625 C 8.050781 -0.0664062 7.101562 0.15625 6.0625 0.15625 Z M 6.0625 -2.6875 C 6.6875 -2.6875 7.21875 -2.914062 7.65625 -3.375 C 8.101562 -3.832031 8.328125 -4.488281 8.328125 -5.34375 C 8.328125 -6.207031 8.109375 -6.867188 7.671875 -7.328125 C 7.242188 -7.785156 6.71875 -8.015625 6.09375 -8.015625 C 5.457031 -8.015625 4.925781 -7.785156 4.5 -7.328125 C 4.082031 -6.878906 3.875 -6.21875 3.875 -5.34375 C 3.875 -4.488281 4.082031 -3.832031 4.5 -3.375 C 4.914062 -2.914062 5.4375 -2.6875 6.0625 -2.6875 Z M 6.0625 -2.6875 "/></g></g></g><g fill="#10a37f" fill-opacity="1"><g transform="translate(151.426927, 47.211798)"><g><path d="M 0.53125 -5.34375 C 0.53125 -6.457031 0.753906 -7.429688 1.203125 -8.265625 C 1.660156 -9.097656 2.296875 -9.734375 3.109375 -10.171875 C 3.921875 -10.617188 4.851562 -10.84375 5.90625 -10.84375 C 7.25 -10.84375 8.367188 -10.492188 9.265625 -9.796875 C 10.171875 -9.097656 10.765625 -8.109375 11.046875 -6.828125 L 7.546875 -6.828125 C 7.253906 -7.640625 6.6875 -8.046875 5.84375 -8.046875 C 5.25 -8.046875 4.769531 -7.8125 4.40625 -7.34375 C 4.050781 -6.882812 3.875 -6.21875 3.875 -5.34375 C 3.875 -4.476562 4.050781 -3.8125 4.40625 -3.34375 C 4.769531 -2.875 5.25 -2.640625 5.84375 -2.640625 C 6.6875 -2.640625 7.253906 -3.050781 7.546875 -3.875 L 11.046875 -3.875 C 10.765625 -2.625 10.171875 -1.640625 9.265625 -0.921875 C 8.359375 -0.203125 7.238281 0.15625 5.90625 0.15625 C 4.851562 0.15625 3.921875 -0.0664062 3.109375 -0.515625 C 2.296875 -0.960938 1.660156 -1.601562 1.203125 -2.4375 C 0.753906 -3.269531 0.53125 -4.238281 0.53125 -5.34375 Z M 0.53125 -5.34375 "/></g></g></g><g fill="#10a37f" fill-opacity="1"><g transform="translate(163.023338, 47.211798)"><g><path d="M 5.546875 0.15625 C 4.609375 0.15625 3.773438 -0.00390625 3.046875 -0.328125 C 2.316406 -0.648438 1.738281 -1.085938 1.3125 -1.640625 C 0.894531 -2.191406 0.660156 -2.816406 0.609375 -3.515625 L 3.859375 -3.515625 C 3.890625 -3.140625 4.054688 -2.835938 4.359375 -2.609375 C 4.671875 -2.378906 5.050781 -2.265625 5.5 -2.265625 C 5.90625 -2.265625 6.21875 -2.34375 6.4375 -2.5 C 6.664062 -2.65625 6.78125 -2.863281 6.78125 -3.125 C 6.78125 -3.425781 6.617188 -3.648438 6.296875 -3.796875 C 5.984375 -3.953125 5.46875 -4.117188 4.75 -4.296875 C 3.988281 -4.472656 3.351562 -4.660156 2.84375 -4.859375 C 2.332031 -5.054688 1.890625 -5.367188 1.515625 -5.796875 C 1.140625 -6.222656 0.953125 -6.800781 0.953125 -7.53125 C 0.953125 -8.144531 1.117188 -8.703125 1.453125 -9.203125 C 1.796875 -9.710938 2.296875 -10.113281 2.953125 -10.40625 C 3.617188 -10.695312 4.40625 -10.84375 5.3125 -10.84375 C 6.65625 -10.84375 7.710938 -10.507812 8.484375 -9.84375 C 9.253906 -9.1875 9.695312 -8.304688 9.8125 -7.203125 L 6.78125 -7.203125 C 6.726562 -7.578125 6.566406 -7.875 6.296875 -8.09375 C 6.023438 -8.3125 5.664062 -8.421875 5.21875 -8.421875 C 4.832031 -8.421875 4.535156 -8.34375 4.328125 -8.1875 C 4.128906 -8.039062 4.03125 -7.84375 4.03125 -7.59375 C 4.03125 -7.28125 4.191406 -7.046875 4.515625 -6.890625 C 4.835938 -6.742188 5.347656 -6.59375 6.046875 -6.4375 C 6.835938 -6.238281 7.476562 -6.039062 7.96875 -5.84375 C 8.46875 -5.644531 8.90625 -5.320312 9.28125 -4.875 C 9.664062 -4.4375 9.863281 -3.847656 9.875 -3.109375 C 9.875 -2.484375 9.695312 -1.921875 9.34375 -1.421875 C 8.988281 -0.929688 8.484375 -0.546875 7.828125 -0.265625 C 7.171875 0.015625 6.410156 0.15625 5.546875 0.15625 Z M 5.546875 0.15625 "/></g></g></g></svg>