<svg xmlns="http://www.w3.org/2000/svg" xmlns:xlink="http://www.w3.org/1999/xlink" width="64" zoomAndPan="magnify" viewBox="0 0 48 48" height="64" preserveAspectRatio="xMidYMid meet" version="1.0"><defs><clipPath id="8affcbc304"><path d="M 8.332031 39 L 9 39 L 9 42 L 8.332031 42 Z M 8.332031 39 " clip-rule="nonzero"/></clipPath><clipPath id="584e680595"><path d="M 8.332031 3.863281 L 39.925781 3.863281 L 39.925781 33 L 8.332031 33 Z M 8.332031 3.863281 " clip-rule="nonzero"/></clipPath><clipPath id="e521b33c1e"><path d="M 39 39 L 39.925781 39 L 39.925781 42 L 39 42 Z M 39 39 " clip-rule="nonzero"/></clipPath><clipPath id="9afa4999ee"><path d="M 34 3.863281 L 39.925781 3.863281 L 39.925781 10 L 34 10 Z M 34 3.863281 " clip-rule="nonzero"/></clipPath><clipPath id="bbf6e3e9cf"><path d="M 8.332031 41 L 39.925781 41 L 39.925781 42.804688 L 8.332031 42.804688 Z M 8.332031 41 " clip-rule="nonzero"/></clipPath><clipPath id="4e6344773d"><path d="M 8.332031 32 L 39.925781 32 L 39.925781 42.804688 L 8.332031 42.804688 Z M 8.332031 32 " clip-rule="nonzero"/></clipPath></defs><g clip-path="url(#8affcbc304)"><path fill="#e6e6e6" d="M 8.332031 40.039062 C 8.332031 40.542969 8.492188 41.015625 8.761719 41.398438 C 8.488281 40.960938 8.332031 40.449219 8.332031 39.898438 Z M 8.332031 40.039062 " fill-opacity="1" fill-rule="nonzero"/></g><path fill="#e6e6e6" d="M 25.082031 11.972656 C 25.046875 11.308594 24.628906 10.960938 24.359375 10.933594 C 24.347656 10.933594 24.335938 10.933594 24.328125 10.933594 C 24.070312 10.933594 23.9375 11.28125 23.878906 11.492188 C 23.59375 12.554688 23.898438 13.621094 24.5 14.621094 C 25.027344 13.019531 25.105469 12.292969 25.082031 11.972656 Z M 25.082031 11.972656 " fill-opacity="1" fill-rule="nonzero"/><path fill="#e6e6e6" d="M 24.984375 17.566406 C 24.699219 18.28125 24.410156 18.953125 24.171875 19.507812 C 24.742188 19.308594 25.117188 19.183594 25.148438 19.175781 L 25.15625 19.171875 C 25.191406 19.160156 25.65625 19.023438 26.335938 18.855469 C 25.890625 18.457031 25.429688 18.027344 24.984375 17.566406 Z M 24.984375 17.566406 " fill-opacity="1" fill-rule="nonzero"/><path fill="#e6e6e6" d="M 18.660156 23.847656 C 18.519531 23.996094 18.480469 24.09375 18.464844 24.128906 C 18.480469 24.140625 18.5 24.164062 18.535156 24.199219 C 18.992188 24.566406 19.292969 24.535156 19.480469 24.480469 C 19.761719 24.394531 20.078125 24.148438 20.398438 23.765625 C 20.699219 23.402344 21 22.929688 21.285156 22.355469 C 21.3125 22.300781 21.339844 22.25 21.367188 22.195312 C 20.570312 22.5625 19.921875 22.914062 19.425781 23.238281 C 19.089844 23.457031 18.835938 23.660156 18.660156 23.847656 Z M 18.660156 23.847656 " fill-opacity="1" fill-rule="nonzero"/><g clip-path="url(#584e680595)"><path fill="#e6e6e6" d="M 35.742188 9.917969 C 35.308594 9.917969 34.898438 9.734375 34.617188 9.410156 C 34.324219 9.078125 34.199219 8.640625 34.269531 8.203125 L 35.011719 3.878906 L 10.785156 3.878906 C 9.433594 3.878906 8.332031 4.960938 8.332031 6.292969 L 8.332031 32.160156 L 39.921875 32.160156 L 39.921875 9.808594 L 35.777344 9.914062 C 35.765625 9.917969 35.753906 9.917969 35.742188 9.917969 Z M 32.816406 20.273438 C 32.75 20.628906 32.558594 20.945312 32.257812 21.195312 C 31.875 21.515625 31.351562 21.691406 30.789062 21.691406 C 30.710938 21.691406 30.636719 21.6875 30.558594 21.683594 C 29.867188 21.625 29.1875 21.3125 28.605469 20.777344 C 28.371094 20.566406 28.066406 20.316406 27.714844 20.019531 C 26.59375 20.25 25.671875 20.527344 25.597656 20.550781 C 25.519531 20.574219 24.527344 20.898438 23.300781 21.375 C 23.148438 21.789062 22.921875 22.367188 22.617188 22.96875 C 22.277344 23.644531 21.917969 24.21875 21.546875 24.664062 C 21.03125 25.289062 20.480469 25.6875 19.90625 25.859375 C 19.71875 25.917969 19.5 25.960938 19.253906 25.960938 C 18.777344 25.960938 18.203125 25.808594 17.59375 25.3125 C 16.945312 24.785156 16.949219 24.183594 17.007812 23.871094 C 17.078125 23.511719 17.28125 23.164062 17.628906 22.804688 C 17.890625 22.539062 18.230469 22.273438 18.667969 21.992188 C 19.347656 21.546875 20.261719 21.082031 21.382812 20.59375 C 21.667969 20.472656 21.949219 20.351562 22.222656 20.242188 C 22.4375 19.785156 23.066406 18.398438 23.675781 16.859375 C 23.75 16.671875 23.820312 16.492188 23.886719 16.320312 C 23.261719 15.503906 22.816406 14.695312 22.5625 13.921875 C 22.246094 12.964844 22.207031 12.023438 22.453125 11.121094 C 22.597656 10.578125 22.859375 10.15625 23.222656 9.867188 C 23.585938 9.582031 24.042969 9.449219 24.503906 9.496094 C 24.769531 9.523438 25.03125 9.605469 25.28125 9.746094 C 25.519531 9.875 25.730469 10.050781 25.910156 10.265625 C 26.09375 10.476562 26.246094 10.726562 26.355469 11 C 26.464844 11.28125 26.53125 11.582031 26.550781 11.898438 C 26.582031 12.480469 26.4375 13.304688 26.105469 14.421875 C 25.957031 14.914062 25.773438 15.457031 25.558594 16.050781 C 26.363281 16.964844 27.308594 17.792969 28.125 18.480469 C 28.140625 18.476562 28.164062 18.476562 28.179688 18.472656 C 29.121094 18.316406 29.921875 18.253906 30.558594 18.289062 C 30.984375 18.3125 31.335938 18.378906 31.640625 18.484375 C 32.046875 18.632812 32.355469 18.859375 32.558594 19.15625 C 32.800781 19.503906 32.886719 19.890625 32.816406 20.273438 Z M 32.816406 20.273438 " fill-opacity="1" fill-rule="nonzero"/></g><path fill="#e6e6e6" d="M 30.488281 19.726562 C 30.238281 19.714844 29.949219 19.71875 29.628906 19.742188 C 30.394531 20.425781 31.085938 20.277344 31.304688 20.097656 C 31.351562 20.0625 31.367188 20.027344 31.367188 20.019531 C 31.367188 20.015625 31.363281 19.992188 31.332031 19.945312 C 31.304688 19.898438 31.082031 19.757812 30.488281 19.726562 Z M 30.488281 19.726562 " fill-opacity="1" fill-rule="nonzero"/><g clip-path="url(#e521b33c1e)"><path fill="#e6e6e6" d="M 39.921875 40.039062 L 39.921875 39.902344 C 39.921875 40.449219 39.765625 40.964844 39.492188 41.402344 C 39.761719 41.011719 39.921875 40.542969 39.921875 40.039062 Z M 39.921875 40.039062 " fill-opacity="1" fill-rule="nonzero"/></g><g clip-path="url(#9afa4999ee)"><path fill="#e6e6e6" d="M 38.5625 7.40625 L 37.875 6.628906 L 35.453125 3.878906 L 35.324219 3.878906 L 34.839844 6.703125 L 34.574219 8.253906 C 34.449219 8.980469 35.027344 9.628906 35.773438 9.613281 L 37.375 9.574219 L 39.925781 9.511719 L 39.925781 9.179688 Z M 38.5625 7.40625 " fill-opacity="1" fill-rule="nonzero"/></g><g clip-path="url(#bbf6e3e9cf)"><path fill="#f80707" d="M 37.464844 42.453125 L 10.785156 42.453125 C 9.945312 42.453125 9.203125 42.035156 8.761719 41.398438 C 9.273438 42.230469 10.207031 42.789062 11.273438 42.789062 L 36.984375 42.789062 C 38.046875 42.789062 38.980469 42.230469 39.496094 41.398438 C 39.054688 42.035156 38.308594 42.453125 37.464844 42.453125 Z M 37.464844 42.453125 " fill-opacity="1" fill-rule="nonzero"/></g><path fill="#f80707" d="M 26.429688 37.382812 C 26.4375 35.957031 25.59375 35.125 24.082031 35.125 C 23.699219 35.125 23.4375 35.152344 23.257812 35.191406 L 23.257812 39.847656 C 23.425781 39.875 23.679688 39.875 23.925781 39.875 C 25.5 39.890625 26.429688 39.03125 26.429688 37.382812 Z M 26.429688 37.382812 " fill-opacity="1" fill-rule="nonzero"/><g clip-path="url(#4e6344773d)"><path fill="#f80707" d="M 8.332031 39.898438 C 8.332031 40.445312 8.488281 40.960938 8.761719 41.398438 C 9.203125 42.035156 9.945312 42.453125 10.785156 42.453125 L 37.46875 42.453125 C 38.3125 42.453125 39.054688 42.035156 39.496094 41.398438 C 39.765625 40.960938 39.925781 40.449219 39.925781 39.898438 L 39.925781 32.15625 L 8.332031 32.15625 Z M 28.753906 34.25 L 32.582031 34.25 L 32.582031 35.222656 L 29.960938 35.222656 L 29.960938 37.019531 L 32.394531 37.019531 L 32.394531 37.980469 L 29.960938 37.980469 L 29.960938 40.75 L 28.753906 40.75 Z M 22.054688 34.335938 C 22.589844 34.257812 23.261719 34.199219 23.972656 34.199219 C 25.210938 34.199219 26.054688 34.449219 26.660156 34.953125 C 27.308594 35.464844 27.703125 36.242188 27.703125 37.34375 C 27.703125 38.511719 27.300781 39.367188 26.675781 39.929688 C 26.015625 40.519531 24.964844 40.820312 23.683594 40.820312 C 22.988281 40.820312 22.457031 40.78125 22.054688 40.734375 Z M 16.570312 34.335938 C 17.011719 34.257812 17.613281 34.199219 18.417969 34.199219 C 19.300781 34.199219 19.9375 34.382812 20.359375 34.726562 C 20.75 35.046875 21.003906 35.554688 21.003906 36.164062 C 21.003906 36.785156 20.808594 37.285156 20.445312 37.632812 C 19.953125 38.101562 19.207031 38.335938 18.359375 38.335938 C 18.132812 38.335938 17.9375 38.328125 17.769531 38.289062 L 17.769531 40.746094 L 16.574219 40.746094 L 16.574219 34.335938 Z M 16.570312 34.335938 " fill-opacity="1" fill-rule="nonzero"/></g><path fill="#f80707" d="M 19.808594 36.214844 C 19.808594 35.488281 19.300781 35.117188 18.460938 35.117188 C 18.128906 35.117188 17.890625 35.144531 17.765625 35.175781 L 17.765625 37.355469 C 17.925781 37.402344 18.109375 37.410156 18.355469 37.410156 C 19.257812 37.410156 19.808594 36.96875 19.808594 36.214844 Z M 19.808594 36.214844 " fill-opacity="1" fill-rule="nonzero"/><path fill="#ffffff" d="M 17.769531 38.289062 C 17.9375 38.324219 18.132812 38.335938 18.359375 38.335938 C 19.210938 38.335938 19.957031 38.101562 20.445312 37.632812 C 20.808594 37.285156 21.003906 36.785156 21.003906 36.164062 C 21.003906 35.558594 20.75 35.046875 20.359375 34.726562 C 19.9375 34.378906 19.300781 34.199219 18.417969 34.199219 C 17.613281 34.199219 17.011719 34.257812 16.570312 34.335938 L 16.570312 40.75 L 17.765625 40.75 L 17.765625 38.289062 Z M 17.769531 35.175781 C 17.898438 35.144531 18.132812 35.117188 18.464844 35.117188 C 19.300781 35.117188 19.8125 35.496094 19.8125 36.214844 C 19.8125 36.96875 19.261719 37.410156 18.363281 37.410156 C 18.117188 37.410156 17.929688 37.402344 17.773438 37.355469 L 17.773438 35.175781 Z M 17.769531 35.175781 " fill-opacity="1" fill-rule="nonzero"/><path fill="#ffffff" d="M 26.675781 39.929688 C 27.304688 39.367188 27.703125 38.511719 27.703125 37.34375 C 27.703125 36.246094 27.3125 35.464844 26.664062 34.953125 C 26.054688 34.453125 25.210938 34.199219 23.972656 34.199219 C 23.257812 34.199219 22.589844 34.257812 22.054688 34.335938 L 22.054688 40.726562 C 22.457031 40.777344 22.988281 40.816406 23.683594 40.816406 C 24.96875 40.816406 26.019531 40.515625 26.675781 39.929688 Z M 23.261719 35.195312 C 23.4375 35.160156 23.703125 35.128906 24.085938 35.128906 C 25.597656 35.128906 26.441406 35.957031 26.433594 37.386719 C 26.433594 39.035156 25.5 39.894531 23.933594 39.882812 C 23.6875 39.882812 23.433594 39.882812 23.265625 39.855469 L 23.265625 35.195312 Z M 23.261719 35.195312 " fill-opacity="1" fill-rule="nonzero"/><path fill="#ffffff" d="M 29.960938 37.980469 L 32.394531 37.980469 L 32.394531 37.019531 L 29.960938 37.019531 L 29.960938 35.222656 L 32.582031 35.222656 L 32.582031 34.25 L 28.753906 34.25 L 28.753906 40.75 L 29.960938 40.75 Z M 29.960938 37.980469 " fill-opacity="1" fill-rule="nonzero"/><path fill="#fe0606" d="M 31.648438 18.476562 C 31.34375 18.367188 30.992188 18.304688 30.566406 18.28125 C 29.929688 18.242188 29.125 18.304688 28.1875 18.464844 C 28.171875 18.46875 28.148438 18.46875 28.132812 18.472656 C 27.316406 17.789062 26.367188 16.957031 25.566406 16.042969 C 25.78125 15.445312 25.964844 14.902344 26.113281 14.414062 C 26.445312 13.300781 26.589844 12.472656 26.558594 11.890625 C 26.542969 11.574219 26.472656 11.273438 26.363281 10.988281 C 26.253906 10.71875 26.109375 10.472656 25.921875 10.257812 C 25.738281 10.042969 25.523438 9.867188 25.292969 9.738281 C 25.046875 9.597656 24.78125 9.515625 24.511719 9.488281 C 24.050781 9.441406 23.59375 9.574219 23.234375 9.859375 C 22.871094 10.144531 22.609375 10.570312 22.460938 11.113281 C 22.21875 12.015625 22.257812 12.957031 22.570312 13.914062 C 22.824219 14.6875 23.269531 15.496094 23.894531 16.308594 C 23.828125 16.480469 23.757812 16.664062 23.683594 16.851562 C 23.070312 18.390625 22.445312 19.773438 22.234375 20.234375 C 21.957031 20.34375 21.675781 20.464844 21.390625 20.585938 C 20.269531 21.074219 19.359375 21.542969 18.675781 21.984375 C 18.238281 22.265625 17.898438 22.53125 17.636719 22.796875 C 17.285156 23.152344 17.082031 23.503906 17.015625 23.863281 C 16.957031 24.175781 16.953125 24.777344 17.605469 25.304688 C 18.210938 25.800781 18.785156 25.953125 19.261719 25.953125 C 19.507812 25.953125 19.730469 25.910156 19.917969 25.851562 C 20.492188 25.679688 21.042969 25.28125 21.554688 24.65625 C 21.925781 24.210938 22.28125 23.636719 22.625 22.960938 C 22.925781 22.359375 23.15625 21.777344 23.308594 21.367188 C 24.535156 20.890625 25.527344 20.566406 25.609375 20.542969 C 25.679688 20.519531 26.605469 20.242188 27.726562 20.011719 C 28.074219 20.304688 28.378906 20.558594 28.613281 20.769531 C 29.199219 21.304688 29.875 21.613281 30.566406 21.675781 C 30.640625 21.683594 30.71875 21.683594 30.796875 21.683594 C 31.355469 21.683594 31.882812 21.507812 32.265625 21.1875 C 32.566406 20.9375 32.757812 20.617188 32.824219 20.265625 C 32.894531 19.882812 32.808594 19.492188 32.574219 19.144531 C 32.363281 18.847656 32.058594 18.625 31.648438 18.476562 Z M 21.285156 22.351562 C 21 22.925781 20.699219 23.398438 20.398438 23.761719 C 20.078125 24.144531 19.761719 24.390625 19.480469 24.476562 C 19.292969 24.535156 18.992188 24.5625 18.535156 24.195312 C 18.496094 24.160156 18.472656 24.136719 18.464844 24.125 C 18.480469 24.085938 18.519531 23.992188 18.660156 23.84375 C 18.835938 23.65625 19.089844 23.453125 19.425781 23.230469 C 19.921875 22.902344 20.570312 22.554688 21.367188 22.1875 C 21.339844 22.25 21.316406 22.300781 21.285156 22.351562 Z M 23.882812 11.488281 C 23.941406 11.277344 24.074219 10.929688 24.332031 10.929688 C 24.339844 10.929688 24.355469 10.929688 24.363281 10.929688 C 24.632812 10.957031 25.050781 11.304688 25.085938 11.96875 C 25.105469 12.289062 25.03125 13.019531 24.507812 14.617188 C 23.902344 13.617188 23.59375 12.550781 23.882812 11.488281 Z M 25.15625 19.171875 L 25.148438 19.175781 C 25.117188 19.191406 24.742188 19.308594 24.171875 19.507812 C 24.410156 18.953125 24.699219 18.28125 24.984375 17.566406 C 25.429688 18.027344 25.890625 18.457031 26.335938 18.855469 C 25.65625 19.023438 25.191406 19.160156 25.15625 19.171875 Z M 31.371094 20.015625 C 31.371094 20.023438 31.355469 20.054688 31.308594 20.09375 C 31.089844 20.273438 30.398438 20.421875 29.632812 19.738281 C 29.953125 19.714844 30.242188 19.710938 30.492188 19.722656 C 31.085938 19.753906 31.304688 19.894531 31.335938 19.941406 C 31.367188 19.992188 31.371094 20.015625 31.371094 20.015625 Z M 31.371094 20.015625 " fill-opacity="1" fill-rule="nonzero"/></svg>