<svg xmlns="http://www.w3.org/2000/svg" xmlns:xlink="http://www.w3.org/1999/xlink" width="300" zoomAndPan="magnify" viewBox="0 0 224.87999 225" height="300" preserveAspectRatio="xMidYMid meet" version="1.0"><defs><clipPath id="7be295dd82"><path d="M 40 10.402344 L 194 10.402344 L 194 213.542969 L 40 213.542969 Z M 40 10.402344 " clip-rule="nonzero"/></clipPath><clipPath id="67a074260a"><path d="M 34.539062 34 L 199.453125 34 L 199.453125 117 L 34.539062 117 Z M 34.539062 34 " clip-rule="nonzero"/></clipPath></defs><g clip-path="url(#7be295dd82)"><path fill="#cecece" d="M 40.921875 10.421875 L 193.070312 10.421875 L 193.070312 213.523438 L 40.921875 213.523438 Z M 40.921875 10.421875 " fill-opacity="1" fill-rule="nonzero"/></g><g clip-path="url(#67a074260a)"><path fill="#db1428" d="M 34.539062 34.339844 L 199.453125 34.339844 L 199.453125 116.796875 L 34.539062 116.796875 Z M 34.539062 34.339844 " fill-opacity="1" fill-rule="nonzero"/></g><path fill="#ffffff" d="M 104.046875 63.898438 L 97.828125 87.242188 L 92.304688 87.242188 L 88.339844 72.03125 C 88.132812 71.214844 88.011719 70.355469 87.96875 69.457031 L 87.929688 69.457031 C 87.847656 70.519531 87.683594 71.378906 87.519531 72.03125 L 83.46875 87.242188 L 77.742188 87.242188 L 71.523438 63.898438 L 76.964844 63.898438 L 80.441406 79.71875 C 80.605469 80.414062 80.6875 81.273438 80.769531 82.335938 L 80.890625 82.335938 C 80.933594 81.515625 81.097656 80.617188 81.34375 79.636719 L 85.679688 63.898438 L 90.957031 63.898438 L 94.925781 79.839844 C 95.089844 80.453125 95.210938 81.3125 95.292969 82.292969 L 95.375 82.292969 C 95.414062 81.433594 95.539062 80.578125 95.703125 79.71875 L 99.097656 63.855469 L 104.046875 63.855469 Z M 104.046875 63.898438 " fill-opacity="1" fill-rule="nonzero"/><path fill="#ffffff" d="M 120.902344 87.242188 L 107.074219 87.242188 L 107.074219 63.898438 L 120.371094 63.898438 L 120.371094 67.945312 L 112.066406 67.945312 L 112.066406 73.421875 L 119.796875 73.421875 L 119.796875 77.46875 L 112.066406 77.46875 L 112.066406 83.113281 L 120.902344 83.113281 Z M 120.902344 87.242188 " fill-opacity="1" fill-rule="nonzero"/><path fill="#ffffff" d="M 124.707031 87.242188 L 124.707031 63.898438 L 133.011719 63.898438 C 135.550781 63.898438 137.511719 64.386719 138.902344 65.328125 C 140.296875 66.269531 140.949219 67.617188 140.949219 69.335938 C 140.949219 70.601562 140.539062 71.707031 139.679688 72.644531 C 138.820312 73.585938 137.757812 74.238281 136.449219 74.609375 L 136.449219 74.648438 C 138.085938 74.851562 139.394531 75.464844 140.375 76.449219 C 141.359375 77.46875 141.890625 78.695312 141.890625 80.207031 C 141.890625 82.335938 141.152344 84.011719 139.640625 85.277344 C 138.125 86.546875 136.082031 87.160156 133.460938 87.160156 L 124.707031 87.160156 Z M 129.699219 67.617188 L 129.699219 73.382812 L 132.070312 73.382812 C 133.21875 73.382812 134.117188 73.09375 134.773438 72.5625 C 135.425781 72.03125 135.753906 71.253906 135.753906 70.273438 C 135.753906 68.476562 134.445312 67.578125 131.828125 67.578125 L 129.699219 67.578125 Z M 129.699219 77.144531 L 129.699219 83.5625 L 132.644531 83.5625 C 133.914062 83.5625 134.894531 83.273438 135.589844 82.703125 C 136.285156 82.128906 136.652344 81.3125 136.652344 80.289062 C 136.652344 79.308594 136.285156 78.53125 135.589844 78 C 134.894531 77.46875 133.871094 77.183594 132.605469 77.183594 L 129.699219 77.183594 Z M 129.699219 77.144531 " fill-opacity="1" fill-rule="nonzero"/><path fill="#ffffff" d="M 150.808594 79.105469 L 150.808594 87.242188 L 145.816406 87.242188 L 145.816406 63.898438 L 153.835938 63.898438 C 159.644531 63.898438 162.550781 66.351562 162.550781 71.296875 C 162.550781 73.667969 161.691406 75.589844 159.933594 77.0625 C 158.171875 78.492188 156.003906 79.1875 153.34375 79.144531 L 150.808594 79.144531 Z M 150.808594 67.78125 L 150.808594 75.304688 L 152.976562 75.304688 C 155.882812 75.304688 157.355469 74.035156 157.355469 71.5 C 157.355469 69.007812 155.921875 67.78125 153.019531 67.78125 Z M 150.808594 67.78125 " fill-opacity="1" fill-rule="nonzero"/><path fill="#ffffff" d="M 57.492188 126.730469 L 176.460938 126.730469 L 176.460938 130.863281 L 57.492188 130.863281 Z M 57.492188 126.730469 " fill-opacity="1" fill-rule="nonzero"/><path fill="#ffffff" d="M 57.492188 138.097656 L 176.460938 138.097656 L 176.460938 142.226562 L 57.492188 142.226562 Z M 57.492188 138.097656 " fill-opacity="1" fill-rule="nonzero"/><path fill="#ffffff" d="M 57.492188 149.460938 L 176.460938 149.460938 L 176.460938 153.589844 L 57.492188 153.589844 Z M 57.492188 149.460938 " fill-opacity="1" fill-rule="nonzero"/><path fill="#ffffff" d="M 57.492188 160.828125 L 176.460938 160.828125 L 176.460938 164.957031 L 57.492188 164.957031 Z M 57.492188 160.828125 " fill-opacity="1" fill-rule="nonzero"/><path fill="#ffffff" d="M 57.492188 172.191406 L 176.460938 172.191406 L 176.460938 176.320312 L 57.492188 176.320312 Z M 57.492188 172.191406 " fill-opacity="1" fill-rule="nonzero"/><path fill="#ffffff" d="M 57.492188 183.558594 L 176.460938 183.558594 L 176.460938 187.6875 L 57.492188 187.6875 Z M 57.492188 183.558594 " fill-opacity="1" fill-rule="nonzero"/><path fill="#ffffff" d="M 57.492188 194.921875 L 176.460938 194.921875 L 176.460938 199.050781 L 57.492188 199.050781 Z M 57.492188 194.921875 " fill-opacity="1" fill-rule="nonzero"/></svg>