<svg xmlns="http://www.w3.org/2000/svg" xmlns:xlink="http://www.w3.org/1999/xlink" width="300" zoomAndPan="magnify" viewBox="0 0 224.87999 225" height="300" preserveAspectRatio="xMidYMid meet" version="1.0"><defs><g/><clipPath id="92f2975b72"><path d="M 33 10.855469 L 158 10.855469 L 158 202 L 33 202 Z M 33 10.855469 " clip-rule="nonzero"/></clipPath><clipPath id="56787bc021"><path d="M 45 23 L 209.886719 23 L 209.886719 214 L 45 214 Z M 45 23 " clip-rule="nonzero"/></clipPath><clipPath id="28bbfd69b3"><path d="M 166 23 L 209.886719 23 L 209.886719 60 L 166 60 Z M 166 23 " clip-rule="nonzero"/></clipPath><clipPath id="d9c9ed43e9"><path d="M 14.988281 80 L 79 80 L 79 142 L 14.988281 142 Z M 14.988281 80 " clip-rule="nonzero"/></clipPath></defs><g clip-path="url(#92f2975b72)"><path fill="#c2c9cc" d="M 47.886719 84.785156 L 35.566406 84.785156 C 34.25 84.785156 33.183594 83.71875 33.183594 82.40625 L 33.183594 19.792969 C 33.183594 14.890625 37.148438 10.902344 42.027344 10.902344 L 155.53125 10.902344 C 156.851562 10.902344 157.914062 11.964844 157.914062 13.28125 L 157.914062 25.59375 C 157.914062 26.910156 156.851562 27.972656 155.53125 27.972656 L 54.402344 27.972656 C 52.121094 27.972656 50.265625 29.828125 50.265625 32.105469 L 50.265625 82.40625 C 50.265625 83.71875 49.203125 84.785156 47.886719 84.785156 Z M 47.886719 201.640625 L 42.027344 201.640625 C 37.148438 201.640625 33.183594 197.652344 33.183594 192.75 L 33.183594 139.589844 C 33.183594 138.277344 34.25 137.210938 35.566406 137.210938 L 47.886719 137.210938 C 49.203125 137.210938 50.265625 138.277344 50.265625 139.589844 L 50.265625 199.257812 C 50.265625 200.574219 49.203125 201.640625 47.886719 201.640625 Z M 47.886719 201.640625 " fill-opacity="1" fill-rule="evenodd"/></g><g clip-path="url(#56787bc021)"><path fill="#d8dfe3" d="M 200.785156 213.953125 L 54.402344 213.953125 C 49.496094 213.953125 45.503906 209.964844 45.503906 205.0625 L 45.503906 139.589844 C 45.503906 138.277344 46.570312 137.210938 47.886719 137.210938 L 64.957031 137.210938 C 70.046875 137.210938 74.179688 133.074219 74.179688 127.992188 L 74.179688 94.003906 C 74.179688 88.917969 70.046875 84.785156 64.957031 84.785156 L 47.886719 84.785156 C 46.570312 84.785156 45.503906 83.71875 45.503906 82.40625 L 45.503906 32.105469 C 45.503906 27.203125 49.496094 23.210938 54.402344 23.210938 L 168.839844 23.210938 C 170.15625 23.210938 171.21875 24.28125 171.21875 25.59375 L 171.21875 54.835938 L 207.296875 54.835938 C 208.617188 54.835938 209.683594 55.902344 209.683594 57.214844 L 209.683594 205.0625 C 209.683594 209.964844 205.691406 213.953125 200.785156 213.953125 Z M 200.785156 213.953125 " fill-opacity="1" fill-rule="evenodd"/></g><g clip-path="url(#28bbfd69b3)"><path fill="#afbdc7" d="M 207.296875 59.59375 L 168.839844 59.59375 C 167.523438 59.59375 166.457031 58.53125 166.457031 57.214844 L 166.457031 25.59375 C 166.457031 24.671875 166.988281 23.835938 167.824219 23.441406 C 168.65625 23.050781 169.640625 23.171875 170.351562 23.757812 L 208.8125 55.378906 C 209.589844 56.019531 209.882812 57.074219 209.539062 58.019531 C 209.203125 58.964844 208.304688 59.59375 207.296875 59.59375 Z M 207.296875 59.59375 " fill-opacity="1" fill-rule="evenodd"/></g><path fill="#767a75" d="M 143.804688 56.011719 L 68.746094 56.011719 C 67.429688 56.011719 66.367188 54.945312 66.367188 53.628906 C 66.367188 52.316406 67.429688 51.25 68.746094 51.25 L 143.804688 51.25 C 145.117188 51.25 146.1875 52.316406 146.1875 53.628906 C 146.1875 54.945312 145.117188 56.011719 143.804688 56.011719 Z M 186.4375 185.914062 L 159.367188 185.914062 C 158.050781 185.914062 156.984375 184.847656 156.984375 183.535156 C 156.984375 182.222656 158.050781 181.15625 159.367188 181.15625 L 186.4375 181.15625 C 187.757812 181.15625 188.820312 182.222656 188.820312 183.535156 C 188.820312 184.847656 187.757812 185.914062 186.4375 185.914062 Z M 143.804688 185.914062 L 68.746094 185.914062 C 67.429688 185.914062 66.367188 184.847656 66.367188 183.535156 C 66.367188 182.222656 67.429688 181.15625 68.746094 181.15625 L 143.804688 181.15625 C 145.117188 181.15625 146.1875 182.222656 146.1875 183.535156 C 146.1875 184.847656 145.117188 185.914062 143.804688 185.914062 Z M 186.4375 159.933594 L 159.367188 159.933594 C 158.050781 159.933594 156.984375 158.867188 156.984375 157.554688 C 156.984375 156.238281 158.050781 155.175781 159.367188 155.175781 L 186.4375 155.175781 C 187.757812 155.175781 188.820312 156.238281 188.820312 157.554688 C 188.820312 158.867188 187.757812 159.933594 186.4375 159.933594 Z M 143.804688 159.933594 L 68.746094 159.933594 C 67.429688 159.933594 66.367188 158.867188 66.367188 157.554688 C 66.367188 156.238281 67.429688 155.175781 68.746094 155.175781 L 143.804688 155.175781 C 145.117188 155.175781 146.1875 156.238281 146.1875 157.554688 C 146.1875 158.867188 145.117188 159.933594 143.804688 159.933594 Z M 186.4375 133.953125 L 159.367188 133.953125 C 158.050781 133.953125 156.984375 132.886719 156.984375 131.574219 C 156.984375 130.257812 158.050781 129.195312 159.367188 129.195312 L 186.4375 129.195312 C 187.757812 129.195312 188.820312 130.257812 188.820312 131.574219 C 188.820312 132.886719 187.757812 133.953125 186.4375 133.953125 Z M 143.804688 133.953125 L 75.996094 133.953125 C 74.679688 133.953125 73.613281 132.886719 73.613281 131.574219 C 73.613281 130.257812 74.679688 129.195312 75.996094 129.195312 L 143.804688 129.195312 C 145.117188 129.195312 146.1875 130.257812 146.1875 131.574219 C 146.1875 132.886719 145.117188 133.953125 143.804688 133.953125 Z M 186.4375 107.972656 L 159.367188 107.972656 C 158.050781 107.972656 156.984375 106.90625 156.984375 105.59375 C 156.984375 104.277344 158.050781 103.214844 159.367188 103.214844 L 186.4375 103.214844 C 187.757812 103.214844 188.820312 104.277344 188.820312 105.59375 C 188.820312 106.90625 187.757812 107.972656 186.4375 107.972656 Z M 143.804688 107.972656 L 76.5625 107.972656 C 75.25 107.972656 74.179688 106.90625 74.179688 105.59375 C 74.179688 104.277344 75.25 103.214844 76.5625 103.214844 L 143.804688 103.214844 C 145.117188 103.214844 146.1875 104.277344 146.1875 105.59375 C 146.1875 106.90625 145.117188 107.972656 143.804688 107.972656 Z M 143.804688 81.992188 L 83.796875 81.992188 C 82.484375 81.992188 81.414062 80.925781 81.414062 79.613281 C 81.414062 78.296875 82.484375 77.234375 83.796875 77.234375 L 143.804688 77.234375 C 145.117188 77.234375 146.1875 78.296875 146.1875 79.613281 C 146.1875 80.925781 145.117188 81.992188 143.804688 81.992188 Z M 186.4375 81.992188 L 159.367188 81.992188 C 158.050781 81.992188 156.984375 80.925781 156.984375 79.613281 C 156.984375 78.296875 158.050781 77.234375 159.367188 77.234375 L 186.4375 77.234375 C 187.757812 77.234375 188.820312 78.296875 188.820312 79.613281 C 188.820312 80.925781 187.757812 81.992188 186.4375 81.992188 Z M 186.4375 81.992188 " fill-opacity="1" fill-rule="evenodd"/><g clip-path="url(#d9c9ed43e9)"><path fill="#1aa1ff" d="M 64.957031 141.96875 L 28.980469 141.96875 C 21.269531 141.96875 14.992188 135.699219 14.992188 127.992188 L 14.992188 94.003906 C 14.992188 86.292969 21.269531 80.027344 28.980469 80.027344 L 64.957031 80.027344 C 72.667969 80.027344 78.941406 86.292969 78.941406 94.003906 L 78.941406 127.992188 C 78.941406 135.699219 72.667969 141.96875 64.957031 141.96875 Z M 64.957031 141.96875 " fill-opacity="1" fill-rule="evenodd"/></g><path fill="#ffffff" d="M 40.613281 125.230469 L 40.558594 125.230469 L 40.546875 125.226562 L 40.46875 125.226562 L 40.457031 125.222656 L 40.421875 125.222656 L 40.410156 125.21875 L 40.371094 125.21875 L 40.363281 125.214844 L 40.339844 125.214844 L 40.328125 125.210938 L 40.304688 125.210938 L 40.292969 125.207031 L 40.28125 125.207031 L 40.269531 125.203125 L 40.25 125.203125 L 40.238281 125.199219 L 40.226562 125.199219 L 40.21875 125.195312 L 40.203125 125.195312 L 40.191406 125.191406 L 40.179688 125.191406 L 40.179688 125.1875 L 40.167969 125.1875 L 40.15625 125.183594 L 40.140625 125.183594 L 40.132812 125.179688 L 40.121094 125.179688 L 40.109375 125.171875 L 40.097656 125.167969 L 40.085938 125.167969 L 40.0625 125.160156 L 40.050781 125.160156 L 40.046875 125.15625 L 40.042969 125.15625 L 40.019531 125.148438 L 40.003906 125.148438 L 39.996094 125.144531 L 39.984375 125.140625 L 39.964844 125.136719 L 39.960938 125.136719 L 39.949219 125.132812 L 39.941406 125.128906 L 39.929688 125.125 L 39.921875 125.125 L 39.917969 125.121094 L 39.90625 125.117188 L 39.890625 125.113281 L 39.878906 125.109375 L 39.835938 125.097656 L 39.820312 125.089844 L 39.796875 125.082031 L 39.765625 125.070312 L 39.757812 125.066406 L 39.714844 125.050781 L 39.710938 125.046875 L 39.652344 125.027344 L 39.632812 125.019531 L 39.597656 125 L 39.59375 125 L 39.554688 124.980469 L 39.542969 124.976562 L 39.515625 124.960938 L 39.492188 124.949219 L 39.480469 124.941406 L 39.402344 124.894531 L 39.363281 124.875 L 39.335938 124.855469 L 39.328125 124.851562 L 39.292969 124.828125 L 39.289062 124.824219 L 39.21875 124.777344 L 39.195312 124.757812 L 39.148438 124.726562 L 39.144531 124.722656 L 39.113281 124.699219 L 39.101562 124.6875 L 39.078125 124.671875 L 39.015625 124.609375 L 39.011719 124.609375 L 38.929688 124.53125 L 38.921875 124.519531 L 38.886719 124.488281 C 38.847656 124.449219 38.808594 124.40625 38.773438 124.359375 L 38.769531 124.355469 L 38.742188 124.320312 L 38.738281 124.316406 C 38.695312 124.257812 38.648438 124.199219 38.609375 124.132812 L 38.605469 124.128906 L 38.546875 124.03125 L 38.539062 124.019531 L 38.519531 123.980469 L 38.496094 123.9375 L 38.496094 123.933594 L 38.476562 123.898438 L 38.46875 123.882812 L 38.445312 123.828125 L 38.4375 123.8125 L 38.421875 123.773438 L 38.421875 123.769531 L 38.398438 123.726562 L 38.390625 123.703125 L 28.980469 100.023438 C 28.496094 98.800781 29.089844 97.421875 30.3125 96.933594 C 31.535156 96.449219 32.917969 97.042969 33.402344 98.265625 L 40.382812 115.828125 L 44.6875 102.546875 C 44.722656 102.433594 44.761719 102.320312 44.816406 102.210938 L 44.820312 102.195312 L 44.839844 102.15625 L 44.847656 102.144531 L 44.867188 102.105469 L 44.871094 102.09375 L 44.898438 102.054688 L 44.902344 102.046875 L 44.960938 101.949219 L 44.960938 101.945312 L 44.992188 101.902344 L 44.992188 101.898438 L 45.023438 101.855469 L 45.023438 101.851562 L 45.058594 101.808594 L 45.058594 101.804688 L 45.09375 101.757812 L 45.132812 101.714844 L 45.167969 101.671875 L 45.167969 101.667969 L 45.207031 101.628906 L 45.207031 101.625 C 45.433594 101.378906 45.714844 101.171875 46.042969 101.035156 L 46.0625 101.027344 L 46.09375 101.015625 L 46.148438 100.996094 L 46.179688 100.980469 L 46.203125 100.972656 L 46.234375 100.960938 L 46.257812 100.953125 L 46.292969 100.945312 L 46.3125 100.9375 L 46.351562 100.925781 L 46.363281 100.921875 L 46.414062 100.910156 L 46.421875 100.910156 L 46.472656 100.898438 L 46.480469 100.898438 L 46.53125 100.886719 L 46.535156 100.886719 L 46.589844 100.878906 L 46.589844 100.875 L 46.648438 100.867188 L 46.652344 100.867188 L 46.707031 100.859375 L 46.765625 100.855469 L 46.820312 100.851562 L 46.824219 100.851562 L 46.882812 100.847656 L 47.058594 100.847656 L 47.113281 100.851562 L 47.121094 100.851562 L 47.230469 100.859375 L 47.234375 100.859375 L 47.34375 100.875 L 47.40625 100.886719 L 47.410156 100.886719 L 47.460938 100.898438 L 47.46875 100.898438 L 47.515625 100.910156 L 47.570312 100.921875 L 47.585938 100.925781 L 47.628906 100.9375 L 47.703125 100.960938 C 48.171875 101.113281 48.5625 101.398438 48.84375 101.757812 L 48.878906 101.804688 L 48.882812 101.808594 L 48.914062 101.851562 L 48.914062 101.855469 L 48.945312 101.898438 L 48.949219 101.902344 L 49.007812 101.992188 L 49.011719 102 L 49.035156 102.042969 L 49.039062 102.054688 C 49.132812 102.210938 49.207031 102.386719 49.257812 102.566406 L 53.550781 115.828125 L 60.53125 98.265625 C 61.015625 97.042969 62.402344 96.449219 63.625 96.933594 C 64.847656 97.421875 65.445312 98.800781 64.957031 100.023438 L 55.558594 123.675781 C 55.527344 123.75 55.496094 123.824219 55.460938 123.898438 L 55.445312 123.933594 L 55.441406 123.9375 L 55.421875 123.980469 L 55.417969 123.980469 L 55.398438 124.019531 L 55.390625 124.03125 L 55.375 124.058594 L 55.351562 124.097656 L 55.335938 124.128906 L 55.324219 124.132812 L 55.300781 124.175781 L 55.300781 124.179688 L 55.277344 124.210938 L 55.265625 124.222656 L 55.25 124.25 L 55.234375 124.269531 L 55.199219 124.316406 L 55.195312 124.320312 L 55.167969 124.355469 L 55.164062 124.359375 L 55.140625 124.386719 L 55.128906 124.40625 L 55.113281 124.425781 L 54.957031 124.582031 L 54.925781 124.609375 L 54.890625 124.640625 L 54.859375 124.671875 C 54.777344 124.734375 54.695312 124.796875 54.613281 124.851562 L 54.601562 124.855469 L 54.570312 124.875 L 54.460938 124.941406 L 54.449219 124.949219 L 54.421875 124.960938 L 54.394531 124.976562 L 54.382812 124.980469 L 54.34375 125 L 54.300781 125.019531 L 54.261719 125.035156 L 54.230469 125.046875 L 54.222656 125.050781 L 54.183594 125.066406 L 54.175781 125.070312 L 54.144531 125.082031 L 54.117188 125.089844 L 54.101562 125.097656 L 54.058594 125.109375 L 54.054688 125.109375 L 54.035156 125.117188 L 54.023438 125.121094 L 54.015625 125.125 L 54.011719 125.125 L 53.976562 125.136719 L 53.964844 125.136719 L 53.953125 125.140625 L 53.945312 125.144531 L 53.933594 125.148438 L 53.921875 125.148438 L 53.898438 125.15625 L 53.890625 125.15625 L 53.886719 125.160156 L 53.863281 125.164062 L 53.855469 125.167969 L 53.84375 125.167969 L 53.828125 125.171875 L 53.816406 125.175781 L 53.804688 125.175781 L 53.792969 125.183594 L 53.78125 125.183594 L 53.769531 125.1875 L 53.761719 125.1875 L 53.757812 125.191406 L 53.746094 125.191406 L 53.734375 125.195312 L 53.71875 125.195312 L 53.714844 125.199219 L 53.703125 125.199219 L 53.691406 125.203125 L 53.667969 125.203125 L 53.65625 125.207031 L 53.644531 125.207031 L 53.632812 125.210938 L 53.613281 125.210938 L 53.601562 125.214844 L 53.574219 125.214844 L 53.5625 125.21875 L 53.527344 125.21875 L 53.519531 125.222656 L 53.484375 125.222656 L 53.460938 125.226562 L 53.394531 125.226562 L 53.382812 125.230469 L 53.269531 125.230469 L 53.253906 125.226562 L 53.171875 125.226562 L 53.160156 125.222656 L 53.132812 125.222656 L 53.121094 125.21875 L 53.09375 125.21875 L 53.074219 125.214844 L 53.042969 125.214844 L 53.035156 125.210938 L 53.019531 125.210938 L 53.007812 125.207031 L 52.992188 125.207031 L 52.980469 125.203125 L 52.964844 125.203125 L 52.953125 125.199219 L 52.9375 125.199219 L 52.925781 125.195312 L 52.910156 125.195312 L 52.90625 125.191406 L 52.898438 125.191406 L 52.882812 125.1875 L 52.871094 125.1875 L 52.863281 125.183594 L 52.859375 125.183594 L 52.84375 125.175781 L 52.828125 125.171875 L 52.8125 125.171875 L 52.800781 125.167969 L 52.785156 125.164062 L 52.773438 125.160156 L 52.769531 125.160156 L 52.757812 125.15625 L 52.746094 125.15625 L 52.730469 125.152344 L 52.726562 125.148438 L 52.71875 125.148438 L 52.703125 125.144531 L 52.679688 125.136719 L 52.664062 125.132812 L 52.652344 125.128906 L 52.636719 125.125 L 52.625 125.121094 L 52.609375 125.117188 L 52.597656 125.113281 L 52.59375 125.113281 L 52.578125 125.109375 L 52.566406 125.101562 L 52.554688 125.097656 L 52.546875 125.097656 L 52.539062 125.09375 L 52.527344 125.089844 L 52.511719 125.085938 L 52.503906 125.082031 L 52.5 125.078125 L 52.484375 125.074219 L 52.460938 125.066406 L 52.445312 125.058594 L 52.390625 125.035156 L 52.378906 125.03125 L 52.277344 124.984375 L 52.253906 124.972656 L 52.222656 124.960938 L 52.210938 124.953125 L 52.132812 124.90625 L 52.121094 124.898438 L 52.066406 124.867188 L 52.050781 124.859375 L 52.015625 124.835938 L 52.011719 124.832031 L 51.976562 124.808594 L 51.96875 124.804688 L 51.921875 124.769531 L 51.902344 124.753906 L 51.875 124.734375 L 51.867188 124.726562 L 51.824219 124.699219 L 51.789062 124.671875 L 51.78125 124.660156 L 51.757812 124.636719 L 51.738281 124.621094 L 51.722656 124.605469 L 51.695312 124.582031 L 51.625 124.511719 L 51.613281 124.503906 L 51.554688 124.445312 L 51.535156 124.417969 L 51.527344 124.410156 L 51.496094 124.371094 L 51.46875 124.335938 L 51.460938 124.328125 L 51.4375 124.300781 L 51.425781 124.285156 C 51.394531 124.238281 51.363281 124.195312 51.328125 124.148438 L 51.324219 124.140625 L 51.253906 124.023438 L 51.238281 123.996094 L 51.210938 123.945312 L 51.210938 123.941406 L 51.1875 123.898438 L 51.1875 123.894531 L 51.167969 123.851562 L 51.164062 123.839844 L 51.148438 123.808594 L 51.140625 123.789062 L 51.128906 123.765625 L 51.117188 123.738281 L 51.109375 123.71875 L 51.097656 123.683594 L 51.089844 123.675781 L 51.074219 123.632812 L 51.074219 123.628906 L 51.058594 123.578125 L 51.054688 123.574219 L 46.96875 110.953125 L 42.878906 123.574219 L 42.878906 123.578125 L 42.863281 123.628906 L 42.859375 123.632812 L 42.847656 123.675781 L 42.839844 123.6875 L 42.828125 123.71875 L 42.820312 123.738281 L 42.808594 123.765625 L 42.800781 123.789062 L 42.792969 123.808594 L 42.777344 123.839844 L 42.769531 123.851562 L 42.753906 123.894531 L 42.75 123.898438 L 42.730469 123.941406 L 42.726562 123.945312 C 42.699219 123.996094 42.671875 124.046875 42.644531 124.09375 L 42.632812 124.105469 L 42.609375 124.140625 L 42.609375 124.148438 L 42.578125 124.191406 L 42.546875 124.238281 L 42.5 124.300781 L 42.476562 124.328125 L 42.472656 124.335938 L 42.441406 124.371094 L 42.414062 124.410156 L 42.363281 124.460938 L 42.347656 124.480469 L 42.285156 124.542969 L 42.25 124.574219 L 42.21875 124.605469 L 42.183594 124.636719 L 42.15625 124.660156 L 42.148438 124.671875 L 42.109375 124.699219 L 42.074219 124.726562 L 42 124.78125 L 41.96875 124.804688 L 41.964844 124.808594 L 41.925781 124.832031 L 41.921875 124.835938 L 41.890625 124.859375 L 41.808594 124.90625 L 41.769531 124.929688 L 41.726562 124.953125 L 41.6875 124.972656 L 41.660156 124.988281 L 41.648438 124.992188 L 41.605469 125.011719 L 41.601562 125.011719 L 41.5625 125.03125 L 41.550781 125.035156 L 41.519531 125.046875 L 41.492188 125.058594 L 41.480469 125.066406 L 41.476562 125.066406 L 41.433594 125.082031 L 41.425781 125.085938 L 41.414062 125.089844 L 41.398438 125.09375 L 41.386719 125.097656 L 41.382812 125.097656 L 41.367188 125.105469 L 41.34375 125.113281 L 41.339844 125.113281 L 41.316406 125.121094 L 41.300781 125.125 L 41.289062 125.128906 L 41.273438 125.132812 L 41.261719 125.136719 L 41.257812 125.136719 L 41.222656 125.148438 L 41.214844 125.148438 L 41.207031 125.152344 L 41.171875 125.160156 L 41.167969 125.160156 L 41.121094 125.171875 L 41.109375 125.175781 L 41.09375 125.175781 L 41.082031 125.179688 L 41.078125 125.179688 L 41.066406 125.1875 L 41.054688 125.1875 L 41.039062 125.191406 L 41.03125 125.191406 L 41.027344 125.195312 L 41.015625 125.195312 L 41 125.199219 L 40.984375 125.199219 L 40.972656 125.203125 L 40.960938 125.203125 L 40.945312 125.207031 L 40.933594 125.207031 L 40.917969 125.210938 L 40.90625 125.210938 L 40.894531 125.214844 L 40.875 125.214844 L 40.859375 125.21875 L 40.820312 125.21875 L 40.804688 125.222656 L 40.777344 125.222656 L 40.765625 125.226562 L 40.683594 125.226562 L 40.671875 125.230469 Z M 40.613281 125.230469 " fill-opacity="1" fill-rule="evenodd"/><g fill="#ffffff" fill-opacity="1"><g transform="translate(60.614471, 109.611076)"><g><path d="M 0.390625 0.015625 C 0.335938 0.015625 0.296875 0 0.265625 -0.03125 C 0.234375 -0.0625 0.21875 -0.101562 0.21875 -0.15625 C 0.21875 -0.207031 0.234375 -0.25 0.265625 -0.28125 C 0.296875 -0.3125 0.335938 -0.328125 0.390625 -0.328125 C 0.453125 -0.328125 0.5 -0.3125 0.53125 -0.28125 C 0.5625 -0.25 0.578125 -0.207031 0.578125 -0.15625 C 0.578125 -0.101562 0.5625 -0.0625 0.53125 -0.03125 C 0.5 0 0.453125 0.015625 0.390625 0.015625 Z M 0.390625 0.015625 "/></g></g></g></svg>